<?xml version="1.0" encoding="UTF-8" standalone="no"?>
<svg
   version="1.0"
   width="882.06653pt"
   height="239.64934pt"
   viewBox="0 0 882.06653 239.64934"
   preserveAspectRatio="xMidYMid"
   id="svg11"
   xmlns="http://www.w3.org/2000/svg"
   xmlns:svg="http://www.w3.org/2000/svg">
  <defs
     id="defs11" />
  <metadata
     id="metadata1">
Created by potrace 1.10, written by Peter Selinger 2001-2011
</metadata>
  <g
     transform="matrix(0.1556093,0,0,-0.1556093,-297.16986,515.85584)"
     fill="#000000"
     stroke="none"
     id="g11">
    <path
       d="m 2513,3310 c -190,-29 -360,-132 -479,-290 -38,-52 -92,-170 -109,-242 -33,-139 -11,-328 51,-449 39,-75 124,-187 176,-230 49,-40 189,-119 213,-119 47,0 -35,143 -144,250 -47,47 -94,101 -103,120 -61,126 -61,129 -62,265 -1,142 15,209 70,297 32,51 154,170 168,165 7,-2 13,-124 16,-366 6,-402 1,-381 76,-381 30,0 52,8 82,30 l 42,30 2,387 3,388 h 85 85 l -2,-345 c -1,-190 0,-358 3,-373 13,-64 140,-102 184,-55 19,21 20,34 20,349 0,243 3,330 12,335 7,5 37,-20 80,-65 170,-182 209,-407 106,-621 -34,-70 -56,-100 -128,-170 -62,-61 -97,-105 -123,-155 -42,-79 -37,-96 19,-76 105,38 240,147 310,252 81,120 129,309 113,445 -31,262 -177,462 -416,571 -100,46 -250,69 -350,53 z"
       id="path1" />
    <path
       d="m 4674,3076 c -3,-7 -4,-35 -2,-62 l 3,-49 55,-3 c 43,-3 57,1 67,14 16,22 17,86 1,102 -17,17 -117,16 -124,-2 z"
       id="path2" />
    <path
       d="m 4977,3083 c -9,-8 -9,-86 -1,-107 5,-12 20,-16 64,-16 65,0 70,5 70,75 0,30 -5,45 -16,49 -21,8 -109,8 -117,-1 z"
       id="path3" />
    <path
       d="m 4785,2851 c -109,-36 -181,-99 -228,-199 -27,-59 -29,-69 -25,-155 3,-74 9,-102 30,-142 47,-91 145,-165 249,-189 160,-38 341,52 411,203 29,64 32,218 4,276 -82,175 -271,263 -441,206 z m 216,-155 c 117,-78 132,-241 31,-342 -46,-46 -68,-54 -146,-54 -52,0 -70,5 -109,30 -151,95 -136,299 28,377 64,31 139,26 196,-11 z"
       id="path4" />
    <path
       d="m 7165,2851 c -84,-23 -134,-52 -184,-106 -66,-72 -95,-144 -95,-240 0,-71 4,-88 34,-148 81,-164 252,-240 430,-190 101,28 233,152 227,213 -2,23 -6,25 -65,28 -61,3 -64,2 -95,-33 -43,-49 -83,-72 -138,-80 -205,-30 -329,215 -183,361 44,44 92,64 157,64 54,0 103,-23 159,-76 47,-44 50,-45 106,-42 50,3 57,6 60,25 4,28 -57,122 -101,156 -50,37 -86,53 -164,71 -83,19 -71,19 -148,-3 z"
       id="path5" />
    <path
       d="m 5905,2853 c -44,-12 -46,-19 -44,-185 1,-87 -1,-161 -4,-165 -9,-9 -36,11 -237,176 -124,102 -192,151 -205,149 -19,-3 -20,-12 -23,-317 -2,-229 1,-317 9,-328 9,-10 30,-13 73,-11 l 61,3 3,178 c 2,141 5,177 16,177 7,0 19,-7 26,-15 7,-9 81,-71 164,-138 83,-67 165,-134 181,-149 31,-29 84,-38 86,-15 6,82 0,620 -7,627 -12,11 -74,20 -99,13 z"
       id="path6" />
    <path
       d="m 3713,2813 c -10,-4 -13,-76 -13,-318 0,-276 2,-314 16,-319 27,-10 110,-6 122,6 8,8 12,47 12,110 0,87 2,98 18,98 9,0 27,-17 40,-38 32,-51 124,-165 138,-169 7,-2 47,43 89,102 43,58 84,105 91,105 11,0 14,-22 14,-98 0,-63 4,-102 12,-110 12,-12 95,-16 122,-6 14,5 16,43 16,320 v 314 h -22 c -24,0 -22,2 -212,-237 -53,-68 -101,-123 -105,-123 -5,0 -55,57 -112,126 -57,70 -121,147 -141,171 -21,24 -38,48 -38,52 0,11 -31,19 -47,14 z"
       id="path7" />
    <path
       d="m 6461,2806 c -6,-8 -40,-70 -75,-138 -34,-67 -103,-202 -154,-298 -63,-122 -89,-179 -82,-189 11,-19 144,-18 167,0 8,7 25,36 38,64 12,27 38,84 57,125 20,41 38,83 41,93 15,43 39,15 107,-127 38,-78 76,-149 85,-156 18,-15 123,-21 148,-9 9,6 17,15 17,22 0,27 -306,622 -321,625 -9,2 -21,-4 -28,-12 z"
       id="path8" />
    <path
       d="m 2560,2333 c -8,-3 -41,-24 -73,-46 -39,-27 -73,-41 -103,-45 -42,-4 -45,-7 -40,-28 13,-49 134,-259 158,-271 31,-17 169,-17 190,0 9,6 27,30 39,52 135,242 137,245 92,245 -34,0 -102,30 -147,65 -35,26 -89,39 -116,28 z"
       id="path9" />
    <path
       d="m 6414,2277 c -3,-13 -4,-41 -2,-63 3,-38 4,-39 48,-45 61,-9 90,9 90,57 0,61 -13,74 -75,74 -49,0 -55,-2 -61,-23 z"
       id="path10" />
    <path
       d="m 2541,1877 c -16,-20 27,-102 53,-102 22,0 70,80 62,102 -7,18 -100,17 -115,0 z"
       id="path11" />
  </g>
</svg>
